<?xml version="1.0" encoding="UTF-8"?>
<svg xmlns="http://www.w3.org/2000/svg" width="785" height="352" viewBox="124 280 785 352" role="img" aria-label="BLG Creations logo">  <path d="M 742 663 L 740 665 L 740 670 L 746 672 L 748 674 L 748 676 L 746 678 L 739 678 L 739 679 L 741 680 L 748 680 L 750 678 L 750 673 L 747 670 L 745 670 L 742 666 L 744 664 L 747 664 L 748 665 L 750 664 L 749 663 Z M 720 663 L 721 665 L 724 665 L 725 666 L 725 679 L 727 680 L 728 679 L 728 666 L 729 665 L 732 665 L 733 663 Z M 715 663 L 705 663 L 705 680 L 707 680 L 707 674 L 709 672 L 713 672 L 714 671 L 708 670 L 707 669 L 707 666 L 709 664 L 715 664 Z M 694 663 L 694 680 L 696 680 L 696 663 Z M 674 663 L 671 666 L 670 669 L 670 674 L 672 678 L 675 680 L 684 680 L 685 679 L 685 671 L 684 670 L 679 672 L 681 672 L 683 674 L 683 676 L 681 678 L 677 678 L 673 675 L 672 669 L 673 667 L 677 664 L 680 664 L 683 666 L 685 665 L 683 663 Z M 643 663 L 642 665 L 643 671 L 640 673 L 641 679 L 642 680 L 647 680 L 648 679 L 653 680 L 654 679 L 652 678 L 653 672 L 649 674 L 647 671 L 650 669 L 650 665 L 648 663 Z M 641 675 L 644 672 L 649 677 L 648 678 L 643 678 Z M 645 664 L 648 665 L 648 668 L 646 670 L 644 669 L 644 665 Z M 624 663 L 621 663 L 617 670 L 613 663 L 610 663 L 615 671 L 615 679 L 616 680 L 618 679 L 618 672 Z M 592 663 L 592 680 L 595 679 L 595 674 L 596 673 L 598 674 L 601 679 L 604 680 L 600 673 L 603 670 L 603 665 L 601 663 Z M 594 666 L 595 665 L 599 665 L 601 667 L 601 669 L 598 671 L 595 671 L 594 670 Z M 574 663 L 574 680 L 584 680 L 584 678 L 577 678 L 576 677 L 576 673 L 577 672 L 583 672 L 582 670 L 577 670 L 576 669 L 576 666 L 578 664 L 584 664 L 584 663 Z M 557 663 L 557 679 L 558 680 L 567 680 L 566 678 L 561 678 L 560 677 L 560 665 L 559 663 Z M 541 663 L 542 665 L 542 680 L 551 680 L 551 678 L 545 678 L 544 677 L 544 663 Z M 524 663 L 524 680 L 534 680 L 534 679 L 530 679 L 526 677 L 526 673 L 527 672 L 532 672 L 533 671 L 532 670 L 527 670 L 526 669 L 526 665 L 527 664 L 534 664 L 534 663 Z M 493 663 L 495 666 L 499 680 L 502 679 L 503 673 L 505 669 L 508 674 L 509 680 L 512 679 L 512 676 L 517 663 L 514 663 L 512 672 L 510 674 L 506 663 L 504 663 L 503 669 L 500 674 L 498 670 L 497 664 L 496 663 Z M 477 663 L 477 680 L 487 680 L 487 678 L 480 678 L 479 677 L 479 673 L 480 672 L 486 672 L 486 670 L 480 670 L 479 669 L 480 667 L 479 666 L 480 665 L 486 665 L 487 663 Z M 469 663 L 466 663 L 466 676 L 464 678 L 461 678 L 462 680 L 466 680 L 468 678 L 469 675 Z M 433 663 L 433 680 L 443 680 L 442 678 L 437 678 L 436 677 L 436 673 L 437 672 L 441 672 L 442 670 L 436 670 L 435 669 L 435 666 L 437 664 L 443 664 L 443 663 Z M 410 663 L 410 679 L 411 680 L 419 680 L 424 676 L 425 673 L 425 668 L 424 666 L 419 663 Z M 414 665 L 419 665 L 422 668 L 423 673 L 419 678 L 414 678 L 413 677 L 413 666 Z M 393 663 L 387 680 L 389 680 L 389 678 L 391 676 L 398 676 L 400 680 L 402 680 L 396 663 Z M 394 668 L 397 672 L 396 674 L 392 672 Z M 338 663 L 338 680 L 347 680 L 352 676 L 352 673 L 353 672 L 352 666 L 348 663 Z M 342 665 L 347 665 L 350 668 L 350 674 L 349 676 L 346 678 L 342 678 L 341 677 L 341 666 Z M 315 663 L 315 680 L 317 680 L 317 670 L 318 669 L 323 674 L 325 678 L 328 680 L 329 679 L 329 663 L 327 663 L 327 673 L 326 674 L 322 670 L 318 663 Z M 362 662 L 361 663 L 361 679 L 363 680 L 363 670 L 364 669 L 369 677 L 372 676 L 372 674 L 375 670 L 376 671 L 376 679 L 378 680 L 379 679 L 378 678 L 379 677 L 379 663 L 375 663 L 375 665 L 370 674 L 368 672 L 368 670 L 365 664 Z M 299 662 L 297 663 L 291 680 L 293 680 L 295 676 L 302 676 L 305 680 L 307 680 L 304 674 L 301 664 Z M 296 673 L 297 669 L 299 668 L 301 672 L 297 674 Z M 282 662 L 280 663 L 280 669 L 279 670 L 272 670 L 271 669 L 271 663 L 269 663 L 269 680 L 271 680 L 271 673 L 272 672 L 279 672 L 280 673 L 280 679 L 283 680 L 283 663 Z M 706 592 L 699 593 L 694 595 L 690 595 L 670 601 L 666 601 L 665 602 L 661 602 L 655 604 L 650 604 L 644 606 L 639 606 L 638 607 L 633 607 L 632 608 L 608 610 L 607 611 L 599 611 L 598 612 L 591 612 L 590 613 L 580 613 L 579 614 L 542 615 L 541 616 L 480 616 L 479 615 L 459 615 L 458 614 L 436 613 L 435 612 L 421 611 L 420 610 L 400 608 L 399 607 L 394 607 L 384 604 L 379 604 L 378 603 L 367 601 L 363 599 L 360 599 L 357 597 L 346 594 L 379 605 L 391 607 L 395 609 L 403 610 L 408 612 L 424 614 L 425 615 L 433 615 L 434 616 L 442 616 L 443 617 L 453 617 L 454 618 L 463 618 L 464 619 L 471 619 L 472 620 L 499 621 L 500 622 L 528 622 L 529 621 L 548 621 L 549 620 L 573 619 L 574 618 L 581 618 L 582 617 L 589 617 L 590 616 L 598 616 L 599 615 L 607 615 L 608 614 L 627 612 L 628 611 L 645 608 L 646 607 L 649 607 L 678 599 L 682 599 L 689 596 Z M 587 503 L 581 503 L 577 507 L 576 509 L 576 514 L 577 515 L 580 514 L 587 508 L 588 506 Z M 416 551 L 418 554 L 423 557 L 434 557 L 437 555 L 439 555 L 459 542 L 460 544 L 458 551 L 459 554 L 462 556 L 467 556 L 472 554 L 483 545 L 484 546 L 483 549 L 484 554 L 487 557 L 492 558 L 500 554 L 513 543 L 521 538 L 522 540 L 520 543 L 519 552 L 517 557 L 517 569 L 521 574 L 527 574 L 531 572 L 548 554 L 556 547 L 557 548 L 557 551 L 561 557 L 567 557 L 589 541 L 590 542 L 589 552 L 591 557 L 595 560 L 602 560 L 613 553 L 619 545 L 622 539 L 633 538 L 643 534 L 644 535 L 642 537 L 642 539 L 639 545 L 639 552 L 640 555 L 645 556 L 660 539 L 671 531 L 677 529 L 678 530 L 672 537 L 670 543 L 670 551 L 671 553 L 674 555 L 680 555 L 691 548 L 709 532 L 710 533 L 713 543 L 713 549 L 711 551 L 699 557 L 696 560 L 693 567 L 695 572 L 699 574 L 705 574 L 713 570 L 719 564 L 724 549 L 739 543 L 748 542 L 749 541 L 767 538 L 768 537 L 779 536 L 780 535 L 800 534 L 801 533 L 831 535 L 832 536 L 846 539 L 853 543 L 856 543 L 857 540 L 855 537 L 842 532 L 832 531 L 831 530 L 822 530 L 821 529 L 808 529 L 807 530 L 794 530 L 793 531 L 787 531 L 786 532 L 779 532 L 773 534 L 763 535 L 758 537 L 753 537 L 724 546 L 721 543 L 720 540 L 720 535 L 719 534 L 719 525 L 720 522 L 724 518 L 729 515 L 732 515 L 733 517 L 734 517 L 735 515 L 731 512 L 722 512 L 714 517 L 711 522 L 710 527 L 699 538 L 685 549 L 679 552 L 677 550 L 677 548 L 682 542 L 686 533 L 686 526 L 685 525 L 678 525 L 673 527 L 657 538 L 652 543 L 651 541 L 655 531 L 661 525 L 663 521 L 662 518 L 656 518 L 645 530 L 640 533 L 638 533 L 632 536 L 626 536 L 625 537 L 624 536 L 624 532 L 626 528 L 626 521 L 622 516 L 620 515 L 614 515 L 608 520 L 605 525 L 601 526 L 596 530 L 583 543 L 567 553 L 565 551 L 565 548 L 576 526 L 576 523 L 575 522 L 570 523 L 558 538 L 553 546 L 533 566 L 526 569 L 524 567 L 524 563 L 529 545 L 535 535 L 535 533 L 541 522 L 543 515 L 553 500 L 560 486 L 563 483 L 564 484 L 572 484 L 573 485 L 579 485 L 580 486 L 586 486 L 587 487 L 596 487 L 597 488 L 606 488 L 607 489 L 630 488 L 631 487 L 634 487 L 638 484 L 638 483 L 630 486 L 608 486 L 607 485 L 589 484 L 588 483 L 566 480 L 565 479 L 574 464 L 579 459 L 578 456 L 574 455 L 562 466 L 557 475 L 553 479 L 529 479 L 528 480 L 523 480 L 519 482 L 516 482 L 508 486 L 505 489 L 526 482 L 545 481 L 552 483 L 540 502 L 535 513 L 535 515 L 529 526 L 512 542 L 498 552 L 492 554 L 491 553 L 491 548 L 493 546 L 494 542 L 503 531 L 504 526 L 503 525 L 499 525 L 497 527 L 492 522 L 482 522 L 479 524 L 477 524 L 471 529 L 468 530 L 457 540 L 447 546 L 444 549 L 434 553 L 430 553 L 429 554 L 425 551 L 425 544 L 428 538 L 433 538 L 436 536 L 438 536 L 452 523 L 453 517 L 450 513 L 441 513 L 438 515 L 436 515 L 426 523 L 417 538 L 416 541 Z M 711 553 L 712 554 L 712 560 L 710 563 L 703 570 L 698 571 L 695 568 L 696 564 L 701 559 Z M 589 541 L 590 540 L 591 541 L 590 542 Z M 521 538 L 522 537 L 523 538 L 522 539 Z M 617 538 L 618 540 L 615 545 L 605 555 L 601 557 L 598 554 L 598 546 L 603 537 L 607 533 L 609 535 L 615 538 Z M 677 529 L 678 528 L 679 529 L 678 530 Z M 490 525 L 494 530 L 482 542 L 468 552 L 466 550 L 466 548 L 472 538 L 481 528 L 487 525 Z M 617 518 L 621 518 L 624 523 L 623 531 L 619 536 L 616 535 L 613 532 L 613 523 Z M 448 516 L 449 517 L 449 520 L 447 524 L 436 534 L 430 535 L 429 534 L 432 529 L 441 520 Z M 186 453 L 186 456 L 184 461 L 181 463 L 177 463 L 177 464 L 180 464 L 184 467 L 186 474 L 186 471 L 188 466 L 192 464 L 195 464 L 190 463 L 187 460 Z M 135 453 L 134 454 L 134 457 L 137 457 L 137 454 Z M 870 451 L 870 452 L 872 453 L 874 452 L 873 450 Z M 898 449 L 895 450 L 895 453 L 897 454 L 899 453 L 899 450 Z M 379 453 L 376 451 L 369 449 L 355 449 L 354 450 L 345 451 L 342 453 L 337 454 L 322 461 L 304 473 L 283 493 L 272 507 L 266 517 L 261 528 L 257 542 L 257 546 L 256 547 L 256 559 L 257 560 L 257 564 L 260 572 L 265 579 L 269 582 L 281 587 L 296 587 L 300 585 L 303 585 L 316 581 L 342 566 L 372 542 L 373 542 L 374 544 L 372 547 L 369 559 L 371 562 L 375 563 L 377 562 L 383 549 L 400 531 L 406 527 L 417 526 L 418 525 L 418 522 L 417 521 L 408 522 L 403 525 L 392 535 L 391 533 L 394 528 L 395 521 L 394 520 L 390 520 L 388 521 L 384 527 L 368 542 L 342 562 L 339 563 L 328 571 L 303 582 L 300 582 L 295 584 L 281 583 L 277 581 L 270 574 L 267 567 L 266 554 L 267 553 L 267 547 L 271 537 L 272 531 L 287 506 L 287 504 L 301 488 L 313 476 L 330 464 L 349 455 L 352 455 L 353 454 L 363 454 L 365 453 L 366 454 L 374 455 L 379 460 L 381 466 L 381 469 L 377 477 L 377 479 L 366 492 L 366 493 L 368 494 L 372 493 L 379 486 L 384 474 L 384 460 Z M 373 542 L 374 541 L 375 542 L 374 543 Z M 374 541 L 375 540 L 376 541 L 375 542 Z M 388 538 L 389 537 L 390 538 L 389 539 Z M 389 537 L 390 536 L 391 537 L 390 538 Z M 390 535 L 391 534 L 392 536 L 391 537 Z M 190 437 L 188 438 L 189 440 L 191 439 Z M 830 434 L 828 443 L 823 447 L 817 447 L 816 448 L 825 450 L 828 454 L 828 457 L 830 462 L 831 454 L 836 449 L 843 448 L 837 447 L 831 442 Z M 829 445 L 833 448 L 830 452 L 826 448 Z M 242 429 L 241 429 L 241 435 L 239 440 L 234 444 L 228 444 L 227 445 L 235 447 L 239 451 L 239 456 L 236 458 L 237 460 L 241 459 L 242 453 L 246 447 L 249 446 L 255 446 L 256 448 L 257 447 L 256 445 L 248 444 L 243 440 L 242 437 Z M 241 442 L 244 445 L 241 449 L 237 445 Z M 824 420 L 825 423 L 826 421 Z M 276 413 L 275 416 L 273 418 L 271 418 L 271 419 L 275 422 L 276 425 L 280 420 L 283 419 L 279 417 Z M 835 412 L 833 415 L 836 416 L 838 414 Z M 258 410 L 255 412 L 255 413 L 259 415 L 261 413 Z M 162 410 L 161 411 L 161 417 L 159 423 L 156 426 L 146 427 L 145 428 L 156 430 L 159 433 L 161 444 L 162 443 L 162 438 L 164 432 L 169 429 L 177 428 L 168 427 L 164 424 L 162 419 Z M 232 409 L 231 412 L 233 413 L 234 410 Z M 782 397 L 782 404 L 780 409 L 777 412 L 767 414 L 776 417 L 780 421 L 782 431 L 783 431 L 783 426 L 785 420 L 788 417 L 793 415 L 797 415 L 797 414 L 790 413 L 785 409 L 783 402 L 783 397 Z M 782 410 L 783 412 L 787 415 L 785 416 L 783 419 L 782 419 L 778 414 L 780 413 Z M 866 395 L 865 396 L 865 403 L 864 404 L 863 411 L 859 415 L 846 417 L 847 418 L 858 419 L 862 422 L 864 427 L 865 439 L 866 439 L 867 429 L 869 423 L 875 418 L 883 418 L 886 417 L 876 416 L 871 414 L 869 412 L 867 405 L 867 396 Z M 212 394 L 211 395 L 211 401 L 210 402 L 209 410 L 207 413 L 204 415 L 191 417 L 191 418 L 203 419 L 209 424 L 211 439 L 212 440 L 213 433 L 214 432 L 214 427 L 216 422 L 220 419 L 232 418 L 233 417 L 221 416 L 215 411 Z M 212 375 L 210 377 L 212 380 L 215 377 Z M 175 375 L 171 380 L 176 384 L 176 382 L 180 380 L 180 379 Z M 211 360 L 210 362 L 212 363 L 213 361 Z M 813 359 L 812 359 L 810 375 L 805 380 L 794 381 L 794 382 L 806 384 L 808 386 L 810 390 L 810 396 L 812 403 L 814 397 L 814 391 L 816 386 L 821 383 L 831 382 L 831 381 L 820 380 L 815 376 Z M 253 353 L 252 354 L 252 361 L 251 362 L 251 370 L 249 377 L 247 380 L 244 382 L 237 384 L 226 385 L 226 386 L 231 386 L 232 387 L 239 387 L 246 390 L 248 392 L 250 398 L 252 417 L 254 410 L 254 403 L 255 402 L 256 394 L 261 389 L 267 387 L 279 386 L 280 385 L 263 383 L 257 378 L 255 373 Z M 834 352 L 830 357 L 827 358 L 829 358 L 834 364 L 835 361 L 839 358 L 835 355 Z M 766 320 L 765 320 L 764 338 L 761 346 L 758 349 L 742 352 L 742 353 L 756 354 L 762 359 L 763 368 L 764 369 L 765 384 L 766 383 L 767 368 L 768 367 L 769 360 L 776 354 L 788 353 L 789 352 L 775 350 L 770 346 L 768 341 Z M 452 293 L 452 295 L 456 295 L 461 297 L 464 301 L 464 305 L 465 306 L 465 413 L 464 414 L 464 420 L 463 422 L 457 426 L 453 426 L 452 428 L 453 429 L 552 429 L 553 428 L 553 401 L 551 401 L 549 409 L 544 417 L 540 421 L 533 424 L 529 424 L 528 425 L 490 425 L 486 422 L 484 415 L 484 306 L 486 300 L 489 296 L 491 295 L 496 295 L 497 294 L 496 293 Z M 325 293 L 325 295 L 333 296 L 337 301 L 337 325 L 338 326 L 338 330 L 337 331 L 337 346 L 338 347 L 338 352 L 337 353 L 338 356 L 338 410 L 337 411 L 337 420 L 333 425 L 325 426 L 325 429 L 391 429 L 392 428 L 397 428 L 401 426 L 407 425 L 420 417 L 425 412 L 431 401 L 432 386 L 431 385 L 430 376 L 425 369 L 413 360 L 408 358 L 400 357 L 399 356 L 394 356 L 393 355 L 396 353 L 403 351 L 405 349 L 407 349 L 415 342 L 422 331 L 422 317 L 417 308 L 407 298 L 400 296 L 397 294 L 392 294 L 391 293 Z M 358 358 L 378 358 L 379 359 L 391 360 L 400 364 L 407 372 L 411 386 L 410 402 L 406 413 L 398 421 L 386 425 L 365 425 L 362 424 L 359 421 L 358 412 L 357 411 L 357 359 Z M 360 295 L 378 295 L 379 296 L 383 296 L 393 302 L 398 308 L 401 317 L 401 334 L 397 343 L 389 352 L 382 354 L 378 354 L 377 355 L 359 355 L 357 353 L 357 300 Z M 603 297 L 592 303 L 576 317 L 571 324 L 564 338 L 561 347 L 561 353 L 560 354 L 561 377 L 564 386 L 575 405 L 592 420 L 607 427 L 617 430 L 621 430 L 622 431 L 648 431 L 649 430 L 660 429 L 669 426 L 686 417 L 688 415 L 688 383 L 690 378 L 694 375 L 699 375 L 700 374 L 699 372 L 658 372 L 657 373 L 654 373 L 655 375 L 663 376 L 667 380 L 668 383 L 668 414 L 666 419 L 662 423 L 657 424 L 654 426 L 650 426 L 644 428 L 635 428 L 634 427 L 628 427 L 615 423 L 607 418 L 595 404 L 588 390 L 584 378 L 584 372 L 583 371 L 583 348 L 584 347 L 585 338 L 593 319 L 598 312 L 609 301 L 619 296 L 628 295 L 629 294 L 647 294 L 648 295 L 652 295 L 658 297 L 665 301 L 675 310 L 680 317 L 683 328 L 686 327 L 686 302 L 684 300 L 682 300 L 679 298 L 676 298 L 670 295 L 662 294 L 653 291 L 648 291 L 647 290 L 627 290 L 626 291 L 617 292 Z" fill="black" fill-rule="evenodd"/>
</svg>

